<svg xmlns="http://www.w3.org/2000/svg" viewBox="0 0 220 220" role="img" aria-label="Crystal Bloom Full">
  <title>Crystal Bloom Full</title>
  <style>
  :root {
    --line: #28311f;
    --shadow: rgba(0, 0, 0, 0.18);
    --soil-dark: #6a472f;
    --soil-mid: #83583a;
    --soil-light: #a3734f;
    --soil-speck: #c99c70;
    --leaf-dark: #3f6a2f;
    --leaf-mid: #5d8d43;
    --leaf-light: #86b75f;
    --leaf-hi: #b9d97f;
  }
  svg {
    image-rendering: pixelated;
    shape-rendering: crispEdges;
  }
  .outline {
    stroke: var(--line);
    stroke-width: 3;
    stroke-linejoin: miter;
    stroke-linecap: square;
    paint-order: stroke fill;
  }
  .thin {
    stroke: var(--line);
    stroke-width: 2;
    stroke-linejoin: miter;
    stroke-linecap: square;
    paint-order: stroke fill;
  }
</style>
    <ellipse cx="110" cy="180" rx="58" ry="14" fill="var(--shadow)" />
  <polygon points="110,40 150,52 178,82 186,112 176,144 148,168 110,178 72,168 44,144 34,112 42,82 70,52"
           fill="var(--soil-dark)" class="outline"/>
  <polygon points="110,54 142,66 164,88 170,112 162,134 142,152 110,160 80,152 58,134 50,112 56,88 78,66"
           fill="var(--soil-mid)"/>
  <polygon points="110,56 122,84 110,104 98,84" fill="#8af5ff" class="outline"/>
  <polygon points="148,72 136,94 120,102 126,84" fill="#5ce8ff" class="outline"/>
  <polygon points="164,110 136,116 120,108 138,102" fill="#7fdbff" class="outline"/>
  <polygon points="148,148 126,136 120,120 136,126" fill="#6dd0ff" class="outline"/>
  <polygon points="110,164 98,136 110,120 122,136" fill="#99f7ff" class="outline"/>
  <polygon points="72,148 94,136 100,120 84,126" fill="#76d9ff" class="outline"/>
  <polygon points="56,110 84,116 100,108 82,102" fill="#6fd1ff" class="outline"/>
  <polygon points="72,72 94,94 100,102 84,84" fill="#5fe4ff" class="outline"/>
  <polygon points="110,78 118,96 110,108 102,96" fill="#d9ffff" class="outline"/>
  <polygon points="132,88 122,102 116,102 122,92" fill="#d9ffff" class="outline"/>
  <polygon points="132,132 122,120 116,116 124,120" fill="#d9ffff" class="outline"/>
  <polygon points="88,132 98,120 104,116 96,120" fill="#d9ffff" class="outline"/>
  <polygon points="88,88 98,102 104,102 96,92" fill="#d9ffff" class="outline"/>
  <circle cx="110" cy="110" r="18" fill="rgba(182,255,255,0.55)"/>
  <polygon points="110,96 122,110 110,124 98,110" fill="#f0ffff" class="outline"/>
</svg>
