<svg xmlns="http://www.w3.org/2000/svg" viewBox="0 0 220 220" role="img" aria-label="Frost Orchid Growth">
  <title>Frost Orchid Growth</title>
  <style>
  :root {
    --line: #28311f;
    --shadow: rgba(0, 0, 0, 0.18);
    --soil-dark: #6a472f;
    --soil-mid: #83583a;
    --soil-light: #a3734f;
    --soil-speck: #c99c70;
    --leaf-dark: #3f6a2f;
    --leaf-mid: #5d8d43;
    --leaf-light: #86b75f;
    --leaf-hi: #b9d97f;
  }
  svg {
    image-rendering: pixelated;
    shape-rendering: crispEdges;
  }
  .outline {
    stroke: var(--line);
    stroke-width: 3;
    stroke-linejoin: miter;
    stroke-linecap: square;
    paint-order: stroke fill;
  }
  .thin {
    stroke: var(--line);
    stroke-width: 2;
    stroke-linejoin: miter;
    stroke-linecap: square;
    paint-order: stroke fill;
  }
</style>
    <ellipse cx="110" cy="177" rx="54" ry="13" fill="var(--shadow)" />
  <polygon points="110,36 152,50 182,82 190,112 178,146 150,170 110,182 70,170 42,146 30,112 38,82 68,50"
           fill="var(--soil-dark)" class="outline"/>
  <polygon points="110,52 144,64 166,88 172,112 164,136 142,154 110,164 78,154 56,136 48,112 54,88 76,64"
           fill="var(--soil-mid)"/>
  <polygon points="110,116 96,92 90,72 98,60 108,66 116,88" fill="#97dbef" class="outline"/>
  <polygon points="110,116 124,92 130,72 122,60 112,66 104,88" fill="#97dbef" class="outline"/>
  <polygon points="110,118 84,112 68,102 70,92 88,92 104,100" fill="#b8ecff" class="outline"/>
  <polygon points="110,118 136,112 152,102 150,92 132,92 116,100" fill="#b8ecff" class="outline"/>
  <polygon points="110,124 98,140 94,154 100,162 110,156 116,140" fill="#8ad1ea" class="outline"/>
  <polygon points="110,124 122,140 126,154 120,162 110,156 104,140" fill="#8ad1ea" class="outline"/>
  <polygon points="110,86 122,94 122,108 110,116 98,108 98,94" fill="#d5f7ff" class="outline"/>
  <polygon points="110,90 118,96 118,106 110,112 102,106 102,96" fill="#ffffff"/>
  <rect x="108" y="80" width="4" height="6" fill="#ebffff"/>
</svg>
