<svg xmlns="http://www.w3.org/2000/svg" viewBox="0 0 220 220" role="img" aria-label="Nebula Flower Full Animated">
  <title>Nebula Flower Full Animated</title>
  <style>
  :root {
    --line: #28311f;
    --shadow: rgba(0, 0, 0, 0.18);
    --soil-dark: #6a472f;
    --soil-mid: #83583a;
    --soil-light: #a3734f;
    --soil-speck: #c99c70;
  }
  svg {
    image-rendering: pixelated;
    shape-rendering: crispEdges;
    overflow: visible;
  }
  .outline {
    stroke: var(--line);
    stroke-width: 3;
    stroke-linejoin: miter;
    stroke-linecap: square;
    paint-order: stroke fill;
  }
  .thin {
    stroke: var(--line);
    stroke-width: 2;
    stroke-linejoin: miter;
    stroke-linecap: square;
    paint-order: stroke fill;
  }
  .soil { animation: soilBreath 6s ease-in-out infinite; }
  .plant { transform-origin: 110px 110px; animation: bob 3.8s ease-in-out infinite; }
  .bloom { transform-origin: 110px 110px; animation: bloomPulse 2.8s ease-in-out infinite; }
  .glow { transform-origin: 110px 110px; animation: glowPulse 2.2s ease-in-out infinite; }
  .sparkle { animation: twinkle 1.9s steps(2) infinite; }
  .sparkle2 { animation: twinkle 2.5s steps(2) infinite 0.5s; }
  .sparkle3 { animation: twinkle 2.1s steps(2) infinite 0.9s; }
  .floaty { animation: drift 4.5s ease-in-out infinite; }
  .floaty2 { animation: drift2 5.4s ease-in-out infinite; }
  .flicker { animation: flicker 1.25s steps(3) infinite; }
  .shimmer { animation: shimmer 3s linear infinite; }
  .rim { animation: rimPulse 2.6s ease-in-out infinite; }
  .core { transform-origin: 110px 100px; animation: corePulse 2.4s ease-in-out infinite; }
  .stem { transform-origin: 110px 132px; animation: sway 3.6s ease-in-out infinite; }
  .crystal { animation: prismPulse 2.8s ease-in-out infinite; }
  .frost { animation: frostPulse 3.2s ease-in-out infinite; }
  .starry { animation: starPulse 2.7s ease-in-out infinite; }
  @keyframes bob { 0%,100% { transform: translateY(0px);} 50% { transform: translateY(-2px);} }
  @keyframes bloomPulse { 0%,100% { transform: scale(1);} 50% { transform: scale(1.03);} }
  @keyframes glowPulse { 0%,100% { opacity: .35;} 50% { opacity: .72;} }
  @keyframes twinkle { 0%,100% { opacity: .35;} 50% { opacity: 1;} }
  @keyframes drift { 0%,100% { transform: translate(0px,0px);} 50% { transform: translate(1px,-3px);} }
  @keyframes drift2 { 0%,100% { transform: translate(0px,0px);} 50% { transform: translate(-1px,-4px);} }
  @keyframes flicker { 0%,100% { opacity: .75;} 50% { opacity: 1;} 75% { opacity: .55;} }
  @keyframes shimmer { 0% { opacity: .55;} 50% { opacity: .95;} 100% { opacity: .55;} }
  @keyframes rimPulse { 0%,100% { opacity: .28;} 50% { opacity: .7;} }
  @keyframes corePulse { 0%,100% { transform: scale(1);} 50% { transform: scale(1.07);} }
  @keyframes sway { 0%,100% { transform: rotate(0deg);} 25% { transform: rotate(-1deg);} 75% { transform: rotate(1deg);} }
  @keyframes soilBreath { 0%,100% { opacity: 1;} 50% { opacity: .96;} }
  @keyframes prismPulse { 0%,100% { opacity: .85;} 50% { opacity: 1;} }
  @keyframes frostPulse { 0%,100% { opacity: .78;} 50% { opacity: 1;} }
  @keyframes starPulse { 0%,100% { opacity: .8;} 50% { opacity: 1;} }
</style>
  <g class="soil">
    <ellipse cx="110" cy="180" rx="58" ry="14" fill="var(--shadow)" />
    <polygon points="110,40 150,52 178,82 186,112 176,144 148,168 110,178 72,168 44,144 34,112 42,82 70,52"
             fill="var(--soil-dark)" class="outline"/>
    <polygon points="110,54 142,66 164,88 170,112 162,134 142,152 110,160 80,152 58,134 50,112 56,88 78,66"
             fill="var(--soil-mid)"/>
  </g>

  <g class="plant bloom">
    <polygon points="110,62 122,88 118,108 102,108 98,88" fill="#4a2b7c" class="outline starry"/>
    <polygon points="146,80 132,96 118,110 126,122 146,118 158,98" fill="#35276f" class="outline starry"/>
    <polygon points="146,140 126,130 118,114 132,124 150,132" fill="#4d3a9d" class="outline starry"/>
    <polygon points="110,158 102,132 106,114 114,114 118,132" fill="#2d5d9a" class="outline starry"/>
    <polygon points="74,140 94,130 102,114 88,124 70,132" fill="#3b2d89" class="outline starry"/>
    <polygon points="74,80 88,96 102,110 94,122 74,118 62,98" fill="#5a2c80" class="outline starry"/>
    <circle cx="110" cy="92" r="6" fill="#d494ff" opacity="0.9" class="glow"/>
    <circle cx="140" cy="102" r="6" fill="#78b3ff" opacity="0.8" class="glow"/>
    <circle cx="142" cy="132" r="5" fill="#b46eff" opacity="0.8" class="glow"/>
    <circle cx="110" cy="142" r="6" fill="#7cd1ff" opacity="0.8" class="glow"/>
    <circle cx="78" cy="132" r="5" fill="#d892ff" opacity="0.8" class="glow"/>
    <circle cx="80" cy="102" r="5" fill="#85b6ff" opacity="0.8" class="glow"/>
    <circle cx="110" cy="110" r="16" fill="#261f54" class="outline"/>
    <circle cx="105" cy="105" r="5" fill="#b470ff" class="glow"/>
    <circle cx="115" cy="111" r="5" fill="#6dc0ff" class="glow"/>
    <circle cx="110" cy="110" r="3" fill="#ffffff" class="sparkle"/>
  </g>
  <circle cx="108" cy="82" r="1.5" fill="#fff" class="sparkle"/>
  <circle cx="114" cy="98" r="1.2" fill="#fff8b0" class="sparkle2"/>
  <circle cx="138" cy="98" r="1.3" fill="#fff" class="sparkle3"/>
  <circle cx="147" cy="111" r="1.2" fill="#fff" class="sparkle"/>
  <circle cx="136" cy="132" r="1.3" fill="#fff8b0" class="sparkle2"/>
  <circle cx="110" cy="147" r="1.2" fill="#fff" class="sparkle3"/>
  <circle cx="84" cy="129" r="1.3" fill="#fff" class="sparkle"/>
  <circle cx="78" cy="106" r="1.3" fill="#fff8b0" class="sparkle2"/>
</svg>